<?xml version="1.0" standalone="no"?>
<!DOCTYPE svg PUBLIC "-//W3C//DTD SVG 20010904//EN"
 "http://www.w3.org/TR/2001/REC-SVG-20010904/DTD/svg10.dtd">
<svg version="1.0" xmlns="http://www.w3.org/2000/svg"
 width="512.000000pt" height="512.000000pt" viewBox="0 0 512.000000 512.000000"
 preserveAspectRatio="xMidYMid meet">
<metadata>
Created by potrace 1.11, written by Peter Selinger 2001-2013
</metadata>
<g transform="translate(0.000000,512.000000) scale(0.100000,-0.100000)"
fill="#000000" stroke="none">
<path d="M671 3319 c-83 -33 -137 -123 -128 -213 5 -56 33 -120 64 -148 58
-53 182 -66 257 -26 33 17 67 58 86 102 15 36 18 83 11 152 -3 32 -65 104
-106 123 -48 22 -140 28 -184 10z"/>
<path d="M1567 2844 c-1 -1 -24 -5 -52 -8 -52 -6 -85 -12 -113 -20 -9 -3 -29
-7 -44 -10 -62 -10 -198 -58 -193 -66 3 -6 8 -18 10 -28 4 -21 76 -235 81
-240 1 -2 19 1 39 8 20 7 42 13 48 14 7 1 17 4 22 8 6 3 30 9 55 13 25 4 54 9
65 12 26 5 113 4 145 -2 36 -7 70 -35 85 -72 l14 -32 -147 -1 c-164 -1 -190
-3 -246 -18 -22 -6 -43 -9 -48 -6 -4 3 -8 1 -8 -4 0 -6 -10 -12 -23 -16 -35
-8 -105 -74 -128 -118 -24 -48 -29 -66 -33 -137 -10 -155 70 -271 219 -319 11
-4 67 -7 125 -7 121 0 165 14 240 76 l46 37 -1 -52 0 -51 205 0 205 0 1 265
c1 146 2 270 4 275 1 6 2 12 0 15 -1 3 -3 46 -5 95 -2 50 -6 100 -8 112 -22
89 -98 183 -182 222 -27 13 -54 24 -60 25 -5 1 -14 4 -20 8 -18 11 -109 21
-203 22 -51 1 -94 1 -95 0z m154 -624 c8 -37 1 -88 -14 -107 -46 -58 -148 -74
-193 -32 -44 41 -24 129 31 141 28 6 175 4 176 -2z"/>
<path d="M2940 2833 c-17 -6 -31 -12 -33 -11 -11 6 -85 -43 -125 -83 l-49 -48
2 57 c1 31 0 62 -2 69 -3 8 -62 12 -212 11 l-207 0 0 -506 c0 -279 3 -509 7
-512 6 -4 391 -5 409 -1 3 0 5 126 6 279 0 303 5 330 62 368 35 23 106 22 134
-2 43 -39 47 -67 47 -340 0 -142 0 -270 1 -284 l0 -25 210 0 210 0 1 45 c0 25
0 63 0 85 -2 48 -2 27 0 250 1 145 4 187 18 214 31 66 98 93 159 64 61 -29 65
-52 68 -368 1 -154 2 -282 3 -285 2 -8 405 -6 411 2 8 11 4 698 -4 743 -19 99
-84 195 -163 242 -164 96 -391 45 -489 -111 -16 -25 -32 -46 -35 -46 -4 0 -12
12 -18 28 -26 61 -106 130 -183 158 -54 20 -188 24 -228 7z"/>
<path d="M544 2317 l1 -512 207 0 c131 0 209 4 211 10 2 5 3 235 2 510 l0 500
-211 2 -211 1 1 -511z"/>
<path d="M4335 2165 c-22 -6 -50 -18 -63 -26 -27 -16 -64 -72 -68 -103 -2 -11
-5 -30 -7 -41 -5 -28 17 -109 39 -138 44 -59 170 -81 247 -43 104 51 128 208
45 301 -44 50 -124 71 -193 50z"/>
</g>
</svg>
